<?xml version="1.0" encoding="UTF-8" standalone="no"?>
<!-- Created with Inkscape (http://www.inkscape.org/) -->

<svg
   xmlns:dc="http://purl.org/dc/elements/1.1/"
   xmlns:cc="http://creativecommons.org/ns#"
   xmlns:rdf="http://www.w3.org/1999/02/22-rdf-syntax-ns#"
   xmlns:svg="http://www.w3.org/2000/svg"
   xmlns="http://www.w3.org/2000/svg"
   xmlns:sodipodi="http://sodipodi.sourceforge.net/DTD/sodipodi-0.dtd"
   xmlns:inkscape="http://www.inkscape.org/namespaces/inkscape"
   width="210mm"
   height="297mm"
   viewBox="0 0 210 297"
   version="1.1"
   id="svg8"
   enable-background="new"
   inkscape:version="0.92.4 (5da689c313, 2019-01-14)"
   sodipodi:docname="contentsBg.svg">
  <defs
     id="defs2">
    <clipPath
       clipPathUnits="userSpaceOnUse"
       id="clipPath894">
      <g
         id="use896"
         inkscape:label="Clip">
        <path
           style="fill:#ff0000;fill-opacity:1;stroke:#ffffff;stroke-width:0.26458332"
           id="path918"
           sodipodi:type="arc"
           sodipodi:cx="76.667534"
           sodipodi:cy="81.93232"
           sodipodi:rx="36.663689"
           sodipodi:ry="36.663689"
           sodipodi:start="4.7293361"
           sodipodi:end="4.7228053"
           d="M 77.288848,45.273896 A 36.663689,36.663689 0 0 1 113.32692,82.493781 36.663689,36.663689 0 0 1 76.165927,118.59258 36.663689,36.663689 0 0 1 40.006507,81.490569 36.663689,36.663689 0 0 1 77.049428,45.27062 l -0.381894,36.6617 z" />
        <path
           style="fill:#ff7f2a;fill-opacity:1;stroke:#ffffff;stroke-width:0.26499999;stroke-miterlimit:4;stroke-dasharray:none"
           id="path920"
           sodipodi:type="arc"
           sodipodi:cx="76.667534"
           sodipodi:cy="81.93232"
           sodipodi:rx="18.898809"
           sodipodi:ry="19.276785"
           sodipodi:start="4.7293361"
           sodipodi:end="4.7228086"
           d="M 76.987799,62.658303 A 18.898809,19.276785 0 0 1 95.564127,82.227537 18.898809,19.276785 0 0 1 76.408943,101.2073 18.898809,19.276785 0 0 1 57.770097,81.700011 18.898809,19.276785 0 0 1 76.864449,62.656581 L 76.667534,81.93232 Z" />
      </g>
    </clipPath>
    <mask
       maskUnits="userSpaceOnUse"
       id="mask7933">
      <rect
         style="fill:#ff1f1c;fill-opacity:1;stroke:#000000;stroke-width:7.56500006;stroke-miterlimit:4;stroke-dasharray:none;stroke-opacity:0"
         id="rect7935"
         width="65.005241"
         height="65.005241"
         x="38.036095"
         y="48.900017"
         transform="rotate(-30)" />
    </mask>
    <mask
       maskUnits="userSpaceOnUse"
       id="mask7971">
      <rect
         style="fill:#00b383;fill-opacity:1;stroke:none;stroke-width:10.43415928;stroke-miterlimit:4;stroke-dasharray:none;stroke-opacity:1"
         id="rect7973"
         width="99.944664"
         height="99.944664"
         x="151.98666"
         y="41.75621"
         transform="rotate(30)" />
    </mask>
    <mask
       maskUnits="userSpaceOnUse"
       id="mask8017">
      <rect
         style="fill:#00b383;fill-opacity:1;stroke:none;stroke-width:10.04997063;stroke-miterlimit:4;stroke-dasharray:none;stroke-opacity:1"
         id="rect8019"
         width="113.94594"
         height="113.94594"
         x="-132.64056"
         y="57.555286"
         transform="rotate(-38.985067)" />
    </mask>
    <mask
       maskUnits="userSpaceOnUse"
       id="mask8309">
      <rect
         style="fill:#00b383;fill-opacity:1;stroke:none;stroke-width:15.41246319;stroke-miterlimit:4;stroke-dasharray:none;stroke-opacity:1"
         id="rect8311"
         width="125.38956"
         height="121.82754"
         x="-236.97334"
         y="-166.27031"
         transform="matrix(-0.95680717,-0.2907233,0.30993149,-0.95075889,0,0)" />
    </mask>
    <mask
       maskUnits="userSpaceOnUse"
       id="mask8317">
      <rect
         style="fill:#00b383;fill-opacity:1;stroke:none;stroke-width:18;stroke-miterlimit:4;stroke-dasharray:none;stroke-opacity:1"
         id="rect8319"
         width="181.00261"
         height="181.00261"
         x="-259.88898"
         y="-134.29433"
         transform="rotate(161.74111)" />
    </mask>
    <mask
       maskUnits="userSpaceOnUse"
       id="mask8317-7">
      <rect
         style="fill:#00b383;fill-opacity:1;stroke:none;stroke-width:18;stroke-miterlimit:4;stroke-dasharray:none;stroke-opacity:1"
         id="rect8319-8"
         width="181.00261"
         height="181.00261"
         x="-259.88898"
         y="-134.29433"
         transform="rotate(161.74111)" />
    </mask>
    <mask
       maskUnits="userSpaceOnUse"
       id="mask8317-0">
      <rect
         style="fill:#00b383;fill-opacity:1;stroke:none;stroke-width:18;stroke-miterlimit:4;stroke-dasharray:none;stroke-opacity:1"
         id="rect8319-2"
         width="181.00261"
         height="181.00261"
         x="-259.88898"
         y="-134.29433"
         transform="rotate(161.74111)" />
    </mask>
    <mask
       maskUnits="userSpaceOnUse"
       id="mask8317-8">
      <rect
         style="fill:#00b383;fill-opacity:1;stroke:none;stroke-width:18;stroke-miterlimit:4;stroke-dasharray:none;stroke-opacity:1"
         id="rect8319-20"
         width="181.00261"
         height="181.00261"
         x="-259.88898"
         y="-134.29433"
         transform="rotate(161.74111)" />
    </mask>
  </defs>
  <sodipodi:namedview
     id="base"
     pagecolor="#ffffff"
     bordercolor="#666666"
     borderopacity="1.0"
     inkscape:pageopacity="0.0"
     inkscape:pageshadow="2"
     inkscape:zoom="0.4806352"
     inkscape:cx="-182.37709"
     inkscape:cy="698.68969"
     inkscape:document-units="mm"
     inkscape:current-layer="layer1"
     showgrid="false"
     inkscape:window-width="1920"
     inkscape:window-height="986"
     inkscape:window-x="-11"
     inkscape:window-y="-11"
     inkscape:window-maximized="1" />
  <metadata
     id="metadata5">
    <rdf:RDF>
      <cc:Work
         rdf:about="">
        <dc:format>image/svg+xml</dc:format>
        <dc:type
           rdf:resource="http://purl.org/dc/dcmitype/StillImage" />
        <dc:title></dc:title>
      </cc:Work>
    </rdf:RDF>
  </metadata>
  <g
     inkscape:groupmode="layer"
     id="layer2"
     inkscape:label="Layer 2" />
  <g
     inkscape:groupmode="layer"
     id="layer1"
     inkscape:label="Layer 1"
     style="">
    <path
       style="fill:none;fill-opacity:0;stroke:#00b383;stroke-width:7.56500006;stroke-miterlimit:4;stroke-dasharray:none;stroke-opacity:1"
       id="path985"
       sodipodi:type="arc"
       sodipodi:cx="89.528175"
       sodipodi:cy="79.4076"
       sodipodi:rx="46.321102"
       sodipodi:ry="46.321102"
       sodipodi:start="4.7293361"
       sodipodi:end="4.7287253"
       sodipodi:open="true"
       d="M 90.313147,33.09315 A 46.321102,46.321102 0 0 1 135.84275,80.1855 46.321102,46.321102 0 0 1 88.757348,125.72229 46.321102,46.321102 0 0 1 43.21337,78.643845 46.321102,46.321102 0 0 1 90.284858,33.092679"
       mask="url(#mask7933)"
       transform="translate(-619.76995,-157.58715)" />
    <path
       style="fill:#241f1c;fill-opacity:0;stroke:#00b383;stroke-width:11.50399971;stroke-miterlimit:4;stroke-dasharray:none;stroke-opacity:1"
       id="path985-2"
       sodipodi:type="arc"
       sodipodi:cx="118.33289"
       sodipodi:cy="114.82962"
       sodipodi:rx="58.196682"
       sodipodi:ry="58.196682"
       sodipodi:start="4.7293361"
       sodipodi:end="4.7287253"
       sodipodi:open="true"
       d="M 119.31911,56.641295 A 58.196682,58.196682 0 0 1 176.52137,115.80695 58.196682,58.196682 0 0 1 117.36445,173.01824 58.196682,58.196682 0 0 1 60.144123,113.87006 58.196682,58.196682 0 0 1 119.28357,56.640704"
       mask="url(#mask7971)"
       transform="translate(-676.78531,-373.17622)" />
    <path
       transform="translate(-452.56209,-130.71524)"
       style="fill:none;fill-opacity:1;stroke:#00b383;stroke-width:7.96500015;stroke-miterlimit:4;stroke-dasharray:none;stroke-opacity:1"
       mask="url(#mask8017)"
       d="M 93.519526,97.709922 A 51.770641,51.770641 0 0 1 144.40554,150.34255 51.770641,51.770641 0 0 1 91.780692,201.2366 51.770641,51.770641 0 0 1 40.878601,148.61952 51.770641,51.770641 0 0 1 93.487908,97.709396"
       id="path8013"
       inkscape:connector-curvature="0" />
    <path
       style="fill:none;fill-opacity:1;stroke:#00b383;stroke-width:11.50400066;stroke-miterlimit:4;stroke-dasharray:none;stroke-opacity:1"
       id="path8303"
       sodipodi:type="arc"
       sodipodi:cx="92.83683"
       sodipodi:cy="84.273262"
       sodipodi:rx="48.46199"
       sodipodi:ry="48.46199"
       sodipodi:start="4.7293361"
       sodipodi:end="4.7287253"
       sodipodi:open="true"
       d="M 93.658082,35.818231 A 48.46199,48.46199 0 0 1 141.29199,85.087115 48.46199,48.46199 0 0 1 92.030377,132.72854 48.46199,48.46199 0 0 1 44.381428,83.474208 48.46199,48.46199 0 0 1 93.628485,35.817738"
       mask="url(#mask8309)"
       transform="rotate(119.88931,-305.69112,-240.30621)" />
    <path
       style="fill:none;fill-opacity:1;stroke:#00b383;stroke-width:18;stroke-miterlimit:4;stroke-dasharray:none;stroke-opacity:1"
       id="path8313"
       sodipodi:type="arc"
       sodipodi:cx="121.05767"
       sodipodi:cy="102.37352"
       sodipodi:rx="86.803406"
       sodipodi:ry="86.803406"
       sodipodi:start="4.7293361"
       sodipodi:end="4.7287253"
       sodipodi:open="true"
       d="M 122.52867,15.582579 A 86.803406,86.803406 0 0 1 207.84884,103.83126 86.803406,86.803406 0 0 1 119.61318,189.16491 86.803406,86.803406 0 0 1 34.266065,100.94228 86.803406,86.803406 0 0 1 122.47566,15.581697"
       mask="url(#mask8317)"
       transform="rotate(82.844519,-188.90848,-607.05282)" />
    <path
       transform="matrix(1.4405066,-0.37447686,0.37447686,1.4405066,-950.09057,208.71205)"
       style="fill:none;fill-opacity:1;stroke:#00b383;stroke-width:18;stroke-miterlimit:4;stroke-dasharray:none;stroke-opacity:1"
       mask="url(#mask8317-7)"
       d="M 122.52867,15.582579 A 86.803406,86.803406 0 0 1 207.84884,103.83126 86.803406,86.803406 0 0 1 119.61318,189.16491 86.803406,86.803406 0 0 1 34.266065,100.94228 86.803406,86.803406 0 0 1 122.47566,15.581697"
       id="path8313-3"
       inkscape:connector-curvature="0" />
    <path
       style="fill:#f0f0f0;fill-opacity:1;stroke:none;stroke-width:0.28898746px;stroke-linecap:butt;stroke-linejoin:miter;stroke-opacity:1"
       d="M -21.494342,17.271588 C 11.073527,73.67519 118.77294,-8.2677032 153.71197,21.728469 213.95601,73.44972 107.1598,89.784572 77.140325,106.9663 -18.803058,161.87975 154.27201,213.52692 125.80875,262.39999 117.03078,277.47226 101.5893,274.33286 84.927272,270.75663 -54.758194,240.77563 -21.494342,117.05325 -21.494342,17.271588 Z"
       id="path8395"
       inkscape:connector-curvature="0" />
  </g>
</svg>
