<?xml version="1.0" encoding="utf-8"?>
<!-- Generator: Adobe Illustrator 24.0.0, SVG Export Plug-In . SVG Version: 6.00 Build 0)  -->
<svg version="1.1" id="レイヤー_1" xmlns="http://www.w3.org/2000/svg" xmlns:xlink="http://www.w3.org/1999/xlink" x="0px"
	 y="0px" viewBox="0 0 663.3 639.2" style="enable-background:new 0 0 663.3 639.2;" xml:space="preserve">
<style type="text/css">
	.st0{fill:#5271FF;}
	.st1{fill:#9CECEF;}
	.st2{fill:#748DFF;}
</style>
<title>favicon</title>
<!-- anmation -->
<g id="bottomRight">
	<rect id="rect826" x="348.7" y="218.3" class="st0" width="192.9" height="201.4" rx="0" ry="0">
		<animateTransform attributeName="transform" attributeType="XML" type="rotate" from="0,440,316" to="360,440,316" dur="4s" repeatCount="indefinite" /></rect>
</g>
<g id="letters">
	<path id="path822" d="M51.8,566.7h46.3v70.9H85.9l-3-17.3c-7,12.5-18.2,18.8-33.4,18.8c-15.5,0-27.6-6.2-36.3-18.5S0,591.6,0,570.3
		c0-22.3,4.3-40,12.9-53s21.8-19.5,39.8-19.6c24.9,0,39.8,13.9,44.7,41.6l-20.7,5.1c-2.4-11.7-5.7-19.3-9.8-22.8
		c-4.1-3.5-9.3-5.3-14.6-5.2c-18.6,0-27.9,17.3-27.9,51.8c0,34.8,9.5,52.2,28.6,52.2c15.8,0,23.8-11.9,23.8-35.7h-25V566.7z"/>
	<path id="path824" d="M120.1,535.8h21.2V600c0,8.9,0.7,14.9,2.2,18s4.8,4.6,9.9,4.5c6.3,0,10.7-2.7,13.2-8.1
		c2.5-5.4,3.8-15.4,3.8-30v-48.5h21.1v100.9h-19.4v-15.2c-5.5,11.8-14.2,17.7-26.1,17.7c-6.1,0-11.1-1.3-15-3.8
		c-3.9-2.6-6.8-6.4-8.3-10.8c-1.7-4.7-2.5-12.8-2.5-24.3L120.1,535.8z"/>
	<path id="path826" d="M270,500.3h21v136.3h-19.4v-15.3c-4.9,11.4-13.4,17.1-25.5,17.1c-11.6,0-20.3-4.8-26.1-14.3s-8.7-22-8.6-37.5
		c0-16.6,3.2-29.5,9.5-38.8c6.4-9.3,14.9-13.9,25.6-13.9c11.2,0,19,4.5,23.5,13.4V500.3z M270,577.3c0-10.4-2-17.6-6-21.8
		s-8.1-6.2-12.4-6.3c-11.8,0-17.7,11.9-17.7,35.6c0,25.3,6,38,17.9,38c4.6,0,8.8-2.1,12.5-6.3s5.6-11.5,5.7-21.9V577.3z"/>
	<path id="path828" d="M390.2,589.3h-58c0,13.7,1.9,22.8,5.6,27.4c3.4,4.4,8.7,6.9,14.2,6.8c9.5,0,15.5-6.3,18-18.9l19.3,2.5
		c-5.1,21.4-17.7,32.1-38,32.1c-12.4,0-22.3-4.4-29.6-13.1c-7.4-8.7-11.1-21.5-11-38.4c0-17.3,3.7-30.7,11.2-40.2
		c7.4-9.4,17.4-14.2,29.8-14.2c8.7,0,16.1,2.4,22,7.1c6,4.8,10.4,11.3,12.6,18.7C388.7,566.8,390,576.9,390.2,589.3L390.2,589.3z
		 M368.6,575.2c0-17.8-5.9-26.7-17.7-26.7c-11,0-17.1,8.9-18.2,26.7H368.6z"/>
	<path id="path830" d="M447.7,500.3h22.9v136.3h-22.9V500.3z"/>
	<path id="path832" d="M496.4,535.8H516v15.6c4.7-12,13.2-18,25.4-18c6.9,0,12.5,1.6,16.7,4.9c4,2.9,6.8,7,8,11.8
		c1.2,4.5,1.7,11.7,1.7,21.6v65h-21.1v-63.9c0-8.8-0.8-14.8-2.3-17.9c-1.6-3.1-4.9-4.7-10-4.8c-4.9-0.2-9.6,2.1-12.4,6.1
		c-2.9,4-4.4,12-4.4,24v56.5h-21.1V535.8H496.4z"/>
	<path id="path834" d="M663.3,569.7l-20.4,2.2c-1-8.8-2.7-14.6-5.2-17.6s-5.9-4.4-10.4-4.5c-6.3,0-10.9,2.9-13.7,8.6
		s-4.3,15.7-4.3,30c0,22.4,6,33.6,18,33.6c9.2,0,14.4-7.3,15.5-21.9l20.4,1.8c-2.8,24.9-15.3,37.3-37.5,37.3
		c-13.1,0-22.9-4.7-29.2-14c-6.4-9.3-9.5-22.2-9.4-38.7c0-17.3,3.4-30.5,10.2-39.6s16.8-13.6,29.8-13.6
		C648.4,533.4,660.4,545.5,663.3,569.7L663.3,569.7z"/>
</g>
<g id="bottomLeft">
	<rect id="rect826-6" x="129.6" y="220.3" class="st1" width="188.6" height="201.4"/>
</g>
<g id="top">
	<rect id="rect843" x="349.7" y="0" class="st2" width="192.9" height="199.3"/>
</g>
</svg>
